# xmcd CD database file
#
# Track frame offsets:
#	150
#	17745
#	39900
#	56505
#	74955
#	94950
#	124398
#	135888
#	153070
#	165230
#	181793
#	210725
#	224600
#	242918
#
# Disc length: 3432 seconds
#
# Revision: 2
# Processed by: cddbd v1.4b41PL1 Copyright (c) Steve Scherf et al.
# Submitted via: Feurio! 1.50.2ß - http://www.feurio.com
#
DISCID=c20d660e
DTITLE=Boogiemen - Scream 'n Howl
DYEAR=1900
DGENRE=
TTITLE0=Automatic
TTITLE1=Fess Up
TTITLE2=Livin' Doll
TTITLE3=Hurricane Rag
TTITLE4=Read Hot Boogie Woogie (Rockin' The Blues)
TTITLE5=Members Only
TTITLE6=Justine
TTITLE7=Fine Little Mama
TTITLE8=Whitewater Boogie (Smoke)
TTITLE9=Te Ni Nee Ni Nu
TTITLE10=Got To Move
TTITLE11=Fingernails
TTITLE12=Humdinger
TTITLE13=Walkin' The Dog
EXTD=
EXTT0=
EXTT1=
EXTT2=
EXTT3=
EXTT4=
EXTT5=
EXTT6=
EXTT7=
EXTT8=
EXTT9=
EXTT10=
EXTT11=
EXTT12=
EXTT13=
PLAYORDER=
